<mxfile host="app.diagrams.net" modified="2023-08-04T09:38:52.049Z" agent="Mozilla/5.0 (Windows NT 10.0; Win64; x64) AppleWebKit/537.36 (KHTML, like Gecko) Chrome/115.0.0.0 Safari/537.36" version="21.6.6" etag="qjwDKX62egcJeQYmS2lU" type="github">
  <diagram name="第 1 页" id="zKUFh5vz8xscQ3ZtWuNT">
    <mxGraphModel>
      <root>
        <mxCell id="0" />
        <mxCell id="1" parent="0" />
      </root>
    </mxGraphModel>
  </diagram>
</mxfile>
